# xmcd
#
# Track frame offsets: 
#        150
#        14843
#        29462
#        40368
#        57435
#        73674
#        87450
#        100650
#
# Disc length: 1516 seconds
#
# Revision: 4
# Processed by: cddbd v1.5.2PL0 Copyright (c) Steve Scherf et al.
# Submitted via: ExactAudioCopy v0.99pb4
#
DISCID=6e05ea08
DTITLE=Old 97's - Early Tracks
DYEAR=2000
DGENRE=Rock
TTITLE0=Ray Charles
TTITLE1=Cryin' Drunk
TTITLE2=Harold's Super Service
TTITLE3=W.I.F.E.
TTITLE4=Por Favor
TTITLE5=Sound of Running
TTITLE6=Eyes For You
TTITLE7=Let The Train Blow The Whistle
EXTD=YEAR: 2000 ID3G: 17
EXTT0=
EXTT1=
EXTT2=
EXTT3=
EXTT4=
EXTT5=
EXTT6=
EXTT7=
PLAYORDER=
